<svg width="680" height="710" viewBox="0 0 680 710" xmlns="http://www.w3.org/2000/svg">
  <defs>
    <marker id="arrow" viewBox="0 0 10 10" refX="8" refY="5" markerWidth="6" markerHeight="6" orient="auto-start-reverse">
      <path d="M2 1L8 5L2 9" fill="none" stroke="#64748b" stroke-width="1.5" stroke-linecap="round" stroke-linejoin="round"/>
    </marker>
    <marker id="arrow-dash" viewBox="0 0 10 10" refX="8" refY="5" markerWidth="6" markerHeight="6" orient="auto-start-reverse">
      <path d="M2 1L8 5L2 9" fill="none" stroke="#94a3b8" stroke-width="1.5" stroke-linecap="round" stroke-linejoin="round"/>
    </marker>
  </defs>
  <rect width="680" height="710" fill="#ffffff"/>
  <line x1="340" y1="74"  x2="340" y2="108" stroke="#64748b" stroke-width="1.5" fill="none" marker-end="url(#arrow)"/>
  <line x1="340" y1="166" x2="340" y2="198" stroke="#64748b" stroke-width="1.5" fill="none" marker-end="url(#arrow)"/>
  <line x1="340" y1="256" x2="340" y2="303" stroke="#64748b" stroke-width="1.5" fill="none" marker-end="url(#arrow)"/>
  <path d="M263 361 L263 390 L120 390 L120 413" stroke="#64748b" stroke-width="1.5" fill="none" marker-end="url(#arrow)"/>
  <path d="M418 361 L418 390 L420 390 L420 413" stroke="#64748b" stroke-width="1.5" fill="none" marker-end="url(#arrow)"/>
  <path d="M420 471 L420 498 L290 498 L290 523" stroke="#64748b" stroke-width="1.5" fill="none" marker-end="url(#arrow)"/>
  <path d="M420 471 L420 498 L490 498 L490 523" stroke="#64748b" stroke-width="1.5" fill="none" marker-end="url(#arrow)"/>
  <line x1="400" y1="551" x2="382" y2="551" stroke="#64748b" stroke-width="1.5" fill="none" marker-end="url(#arrow)"/>
  <path d="M490 616 L490 594 L290 594 L290 579" stroke="#94a3b8" stroke-width="1" fill="none" stroke-dasharray="5 4" marker-end="url(#arrow-dash)"/>
  <text x="388" y="608" font-family="Arial,sans-serif" font-size="11" fill="#94a3b8" text-anchor="middle">ingestion</text>
  <rect x="230" y="30" width="220" height="44" rx="8" fill="#f1f5f9" stroke="#94a3b8" stroke-width="0.5"/>
  <text x="340" y="57" font-family="Arial,sans-serif" font-size="14" font-weight="600" fill="#1e293b" text-anchor="middle">Client browser</text>
  <rect x="195" y="110" width="290" height="56" rx="8" fill="#fef3c7" stroke="#d97706" stroke-width="0.5"/>
  <text x="340" y="132" font-family="Arial,sans-serif" font-size="14" font-weight="600" fill="#92400e" text-anchor="middle">Cloudflare Zero Trust</text>
  <text x="340" y="150" font-family="Arial,sans-serif" font-size="11" fill="#b45309" text-anchor="middle">Secure external access · HTTPS</text>
  <rect x="185" y="200" width="310" height="56" rx="8" fill="#dbeafe" stroke="#3b82f6" stroke-width="0.5"/>
  <text x="340" y="222" font-family="Arial,sans-serif" font-size="14" font-weight="600" fill="#1e40af" text-anchor="middle">Next.js frontend  :3000</text>
  <text x="340" y="240" font-family="Arial,sans-serif" font-size="11" fill="#1d4ed8" text-anchor="middle">React · Tailwind · RTL · i18n · PM2</text>
  <rect x="185" y="305" width="310" height="56" rx="8" fill="#dbeafe" stroke="#3b82f6" stroke-width="0.5"/>
  <text x="340" y="327" font-family="Arial,sans-serif" font-size="14" font-weight="600" fill="#1e40af" text-anchor="middle">Node.js backend  :3001</text>
  <text x="340" y="345" font-family="Arial,sans-serif" font-size="11" fill="#1d4ed8" text-anchor="middle">Express · Auth · RBAC · PM2</text>
  <rect x="20" y="415" width="200" height="56" rx="8" fill="#d1fae5" stroke="#10b981" stroke-width="0.5"/>
  <text x="120" y="437" font-family="Arial,sans-serif" font-size="14" font-weight="600" fill="#065f46" text-anchor="middle">PostgreSQL 15</text>
  <text x="120" y="455" font-family="Arial,sans-serif" font-size="11" fill="#047857" text-anchor="middle">Auth · history · RBAC</text>
  <rect x="320" y="415" width="200" height="56" rx="8" fill="#ede9fe" stroke="#8b5cf6" stroke-width="0.5"/>
  <text x="420" y="437" font-family="Arial,sans-serif" font-size="14" font-weight="600" fill="#4c1d95" text-anchor="middle">n8n workflow</text>
  <text x="420" y="455" font-family="Arial,sans-serif" font-size="11" fill="#5b21b6" text-anchor="middle">RAG Hybrid-v3 pipeline</text>
  <rect x="200" y="525" width="180" height="56" rx="8" fill="#ede9fe" stroke="#8b5cf6" stroke-width="0.5"/>
  <text x="290" y="547" font-family="Arial,sans-serif" font-size="14" font-weight="600" fill="#4c1d95" text-anchor="middle">Qdrant  :6333</text>
  <text x="290" y="565" font-family="Arial,sans-serif" font-size="11" fill="#5b21b6" text-anchor="middle">700+ vector points</text>
  <rect x="400" y="525" width="180" height="56" rx="8" fill="#ede9fe" stroke="#8b5cf6" stroke-width="0.5"/>
  <text x="490" y="547" font-family="Arial,sans-serif" font-size="14" font-weight="600" fill="#4c1d95" text-anchor="middle">Ollama  :11434</text>
  <text x="490" y="565" font-family="Arial,sans-serif" font-size="11" fill="#5b21b6" text-anchor="middle">qwen2.5:3b · nomic-embed</text>
  <rect x="400" y="618" width="180" height="44" rx="8" fill="#f1f5f9" stroke="#94a3b8" stroke-width="0.5" stroke-dasharray="6 4"/>
  <text x="490" y="645" font-family="Arial,sans-serif" font-size="13" font-weight="600" fill="#334155" text-anchor="middle">Nextcloud  :8080</text>
  <rect x="30" y="622" width="12" height="12" rx="2" fill="#dbeafe" stroke="#3b82f6" stroke-width="0.5"/>
  <text x="48" y="633" font-family="Arial,sans-serif" font-size="11" fill="#475569">Application</text>
  <rect x="30" y="642" width="12" height="12" rx="2" fill="#d1fae5" stroke="#10b981" stroke-width="0.5"/>
  <text x="48" y="653" font-family="Arial,sans-serif" font-size="11" fill="#475569">Data</text>
  <rect x="130" y="622" width="12" height="12" rx="2" fill="#ede9fe" stroke="#8b5cf6" stroke-width="0.5"/>
  <text x="148" y="633" font-family="Arial,sans-serif" font-size="11" fill="#475569">AI layer</text>
  <rect x="130" y="642" width="12" height="12" rx="2" fill="#f1f5f9" stroke="#94a3b8" stroke-width="0.5"/>
  <text x="148" y="653" font-family="Arial,sans-serif" font-size="11" fill="#475569">Infrastructure</text>
</svg>
